<svg width="24" height="24" viewBox="0 0 24 24" fill="none" xmlns="http://www.w3.org/2000/svg">
<path d="M10.125 20.625C10.125 20.8475 10.059 21.065 9.9354 21.25C9.81179 21.435 9.63609 21.5792 9.43052 21.6644C9.22495 21.7495 8.99875 21.7718 8.78052 21.7284C8.56229 21.685 8.36184 21.5778 8.2045 21.4205C8.04717 21.2632 7.94002 21.0627 7.89662 20.8445C7.85321 20.6262 7.87549 20.4 7.96063 20.1945C8.04578 19.9889 8.18998 19.8132 8.37498 19.6896C8.55999 19.566 8.7775 19.5 9 19.5C9.29837 19.5 9.58452 19.6185 9.79549 19.8295C10.0065 20.0405 10.125 20.3266 10.125 20.625ZM18.75 19.5C18.5275 19.5 18.31 19.566 18.125 19.6896C17.94 19.8132 17.7958 19.9889 17.7106 20.1945C17.6255 20.4 17.6032 20.6262 17.6466 20.8445C17.69 21.0627 17.7972 21.2632 17.9545 21.4205C18.1118 21.5778 18.3123 21.685 18.5305 21.7284C18.7488 21.7718 18.975 21.7495 19.1805 21.6644C19.3861 21.5792 19.5618 21.435 19.6854 21.25C19.809 21.065 19.875 20.8475 19.875 20.625C19.875 20.3266 19.7565 20.0405 19.5455 19.8295C19.3345 19.6185 19.0484 19.5 18.75 19.5ZM22.8581 7.23563L20.1844 15.9263C20.0678 16.3104 19.8304 16.6467 19.5075 16.8851C19.1845 17.1236 18.7933 17.2516 18.3919 17.25H9.38156C8.97437 17.2487 8.57855 17.1155 8.25351 16.8702C7.92846 16.625 7.6917 16.2809 7.57875 15.8897L4.18781 4.02188C4.16539 3.94348 4.11802 3.87453 4.05289 3.82547C3.98776 3.77641 3.90842 3.74991 3.82687 3.75H2.25C2.15054 3.75 2.05516 3.71049 1.98483 3.64016C1.91451 3.56984 1.875 3.47446 1.875 3.375C1.875 3.27554 1.91451 3.18016 1.98483 3.10984C2.05516 3.03951 2.15054 3 2.25 3H3.82687C4.07115 3.00071 4.3086 3.08057 4.50366 3.22762C4.69871 3.37467 4.84084 3.58098 4.90875 3.81563L5.74687 6.75H22.5C22.5587 6.75003 22.6166 6.76384 22.669 6.79031C22.7213 6.81679 22.7668 6.85519 22.8016 6.90243C22.8365 6.94967 22.8597 7.00443 22.8695 7.0623C22.8793 7.12017 22.8754 7.17954 22.8581 7.23563ZM21.9919 7.5H5.96062L8.29875 15.6844C8.3667 15.9192 8.50898 16.1256 8.70422 16.2727C8.89946 16.4197 9.13713 16.4995 9.38156 16.5H18.3919C18.6327 16.5009 18.8674 16.4241 19.0611 16.2811C19.2548 16.1381 19.3972 15.9364 19.4672 15.7059L21.9919 7.5Z" fill="#FDFDFD"/>
</svg>
