<svg width="24" height="24" viewBox="0 0 24 24" fill="none" xmlns="http://www.w3.org/2000/svg">
<path d="M16.8125 4C14.8025 4 13.07 4.95531 12.125 6.53781C11.18 4.95531 9.4475 4 7.4375 4C5.99592 4.00174 4.61388 4.57517 3.59452 5.59452C2.57517 6.61388 2.00174 7.99592 2 9.4375C2 12.1178 3.6875 14.9191 7.00625 17.7616C8.5386 19.0655 10.1931 20.2187 11.9469 21.205C12.0016 21.2345 12.0628 21.25 12.125 21.25C12.1872 21.25 12.2484 21.2345 12.3031 21.205C14.0569 20.2187 15.7114 19.0655 17.2438 17.7616C20.5625 14.9191 22.25 12.1178 22.25 9.4375C22.2483 7.99592 21.6748 6.61388 20.6555 5.59452C19.6361 4.57517 18.2541 4.00174 16.8125 4ZM12.125 20.4456C10.8125 19.6994 2.75 14.8816 2.75 9.4375C2.75149 8.19475 3.24583 7.00334 4.12458 6.12458C5.00334 5.24583 6.19475 4.75149 7.4375 4.75C9.41656 4.75 11.0797 5.81031 11.7781 7.51656C11.8064 7.58534 11.8544 7.64417 11.9162 7.68557C11.978 7.72697 12.0506 7.74908 12.125 7.74908C12.1994 7.74908 12.272 7.72697 12.3338 7.68557C12.3956 7.64417 12.4436 7.58534 12.4719 7.51656C13.1703 5.81031 14.8334 4.75 16.8125 4.75C18.0552 4.75149 19.2467 5.24583 20.1254 6.12458C21.0042 7.00334 21.4985 8.19475 21.5 9.4375C21.5 14.875 13.4375 19.6994 12.125 20.4456Z" fill="#FDFDFD"/>
</svg>
