<svg width="24" height="24" viewBox="0 0 24 24" fill="none" xmlns="http://www.w3.org/2000/svg">
<path d="M3 18.1654C3 17.0161 3.45655 15.9139 4.2692 15.1012C5.08186 14.2886 6.18406 13.832 7.33333 13.832H16C17.1493 13.832 18.2515 14.2886 19.0641 15.1012C19.8768 15.9139 20.3333 17.0161 20.3333 18.1654C20.3333 18.74 20.1051 19.2911 19.6987 19.6974C19.2924 20.1038 18.7413 20.332 18.1667 20.332H5.16667C4.59203 20.332 4.04093 20.1038 3.6346 19.6974C3.22827 19.2911 3 18.74 3 18.1654Z" stroke="#FDFDFD" stroke-width="0.8" stroke-linejoin="round"/>
<path d="M11.918 10C13.851 10 15.418 8.433 15.418 6.5C15.418 4.567 13.851 3 11.918 3C9.98497 3 8.41797 4.567 8.41797 6.5C8.41797 8.433 9.98497 10 11.918 10Z" stroke="#FDFDFD" stroke-width="0.8"/>
</svg>
